# xmcd
#
# Track frame offsets: 
#        150
#        11395
#        26502
#        39626
#        60626
#
# Disc length: 1077 seconds
#
# Revision: 1
# Processed by: cddbd v1.5.2PL0 Copyright (c) Steve Scherf et al.
# Submitted via: ExactAudioCopyFreeDBPlugin 1.0
#
DISCID=33043305
DTITLE=Show Ponies - Run For Your Life
DYEAR=2014
DGENRE=Americana
TTITLE0=The Show Ponies feat. Noam Pikelny - Honey, Dog And Home ft. N
TTITLE0=oam Pikelny
TTITLE1=The Show Ponies - Run For Your Life
TTITLE2=The Show Ponies feat. Noam Pikelny - Stupid ft. Noam Pikelny
TTITLE3=The Show Ponies - Get me While I'm Young
TTITLE4=The Show Ponies - Some Lonesome Tune
EXTD=
EXTT0=
EXTT1=
EXTT2=
EXTT3=
EXTT4=
PLAYORDER=
